# xmcd
#
# Track frame offsets:
#	150
#	18425
#	58860
#	90300
#	110455
#
# Disc length: 1800 seconds
#
# Revision: 1
# Processed by: cddbd v1.5.1PL0 Copyright (c) Steve Scherf et al.
# Submitted via: EasyCDDAExtractor 7.0.6.1
#
DISCID=35070605
DTITLE=Aretha Franklin - A Rose Is Still A Rose (the remixes)
DYEAR=1900
DGENRE=
TTITLE0=A Rose Is Still A Rose (Love To Infinity Rhythm Radio Mix)
TTITLE1=A Rose Is Still A Rose (Hex Hector Club Mix)
TTITLE2=A Rose Is Still A Rose (Love To Infinity Club Mix)
TTITLE3=A Rose Is Still A Rose (Album Version)
TTITLE4=A Rose Is Still A Rose (
EXTD=
EXTT0=
EXTT1=
EXTT2=
EXTT3=
EXTT4=
PLAYORDER=
